# xmcd
#
# Track frame offsets: 
#        150
#        19194
#        37999
#        51602
#        70758
#        94876
#        118741
#        138105
#        152243
#        169507
#        183666
#
# Disc length: 2685 seconds
#
# Revision: 1
# Processed by: cddbd v1.5.2PL0 Copyright (c) Steve Scherf et al.
# Submitted via: ExactAudioCopy v0.99pb5
#
DISCID=950a7b0b
DTITLE=Lee Howard - Gypsy Soul
DYEAR=2003
DGENRE=Country
TTITLE0=Old American County
TTITLE1=Gypsy Soul
TTITLE2=Palomino
TTITLE3=Can Can Girl
TTITLE4=Margaritas made in Hell
TTITLE5=Kalamity Katie
TTITLE6=One step from Heaven
TTITLE7=Rodeo
TTITLE8=Lady Guinevere
TTITLE9=The Rover
TTITLE10=Velvet Rope
EXTD=YEAR: 2003
EXTT0=
EXTT1=
EXTT2=
EXTT3=
EXTT4=
EXTT5=
EXTT6=
EXTT7=
EXTT8=
EXTT9=
EXTT10=
PLAYORDER=
